# AST/ASF file generated using VICON BodyLanguage
# -----------------------------------------------
:version 1.10
:name VICON
:units
  mass 1.0
  length 0.45
  angle deg
:documentation
   .ast/.asf automatically generated from VICON data using
   VICON BodyBuilder and BodyLanguage model FoxedUp or BRILLIANT.MOD
:root
   order TX TY TZ RX RY RZ
   axis XYZ
   position 0 0 0  
   orientation 0 0 0 
:bonedata
  begin
     id 1 
     name lhipjoint
     direction 0.711131 -0.61297 0.344326 
     length 2.29162 
     axis 0 0 0  XYZ
  end
  begin
     id 2 
     name lfemur
     direction 0.34202 -0.939693 0  
     length 6.71424  
     axis 0 0 20  XYZ
    dof rx ry rz
    limits (-160.0 20.0)
           (-70.0 70.0)
           (-60.0 70.0)
  end
  begin
     id 3 
     name ltibia
     direction 0.34202 -0.939693 0   
     length 6.7087   
     axis 0 0 20   XYZ
    dof rx
    limits (-10.0 170.0)
  end
  begin
     id 4 
     name lfoot
     direction 0.0230374 -0.0632947 0.997729   
     length 1.56743   
     axis -90 7.62852e-016 20   XYZ
    dof rx rz
    limits (-45.0 90.0)
           (-70.0 20.0)
  end
  begin
     id 5 
     name ltoes
     direction 1.53585e-011 -4.21885e-011 1   
     length 0.802914   
     axis -90 7.62852e-016 20   XYZ
    dof rx
    limits (-90.0 20.0)
  end
  begin
     id 6 
     name rhipjoint
     direction -0.733192 -0.592884 0.333043   
     length 2.36925  
     axis 0 0 0  XYZ 
  end
  begin
     id 7 
     name rfemur
     direction -0.34202 -0.939693 0   
     length 6.67027   
     axis 0 0 -20   XYZ
    dof rx ry rz
    limits (-160.0 20.0)
           (-70.0 70.0)
           (-70.0 60.0)
  end
  begin
     id 8 
     name rtibia
     direction -0.34202 -0.939693 0   
     length 6.6862   
     axis 0 0 -20   XYZ
    dof rx
    limits (-10.0 170.0)
 end
 begin
     id 9 
     name rfoot
     direction -0.0949739 -0.260939 0.960672   
     length 1.67698  
     axis -90 -7.62852e-016 -20   XYZ
    dof rx rz
    limits (-45.0 90.0)
           (-20.0 70.0)
  end
  begin
     id 10 
     name rtoes
     direction -1.5353e-011 -4.21868e-011 1   
     length 0.846298   
     axis -90 -7.62852e-016 -20   XYZ
    dof rx
    limits (-90.0 20.0)
  end
  begin
     id 11 
     name lowerback
     direction -0.0206828 0.999785 -0.00109866   
     length 2.04382   
     axis 0 0 0   XYZ
    dof rx ry rz
    limits (-20.0 45.0)
           (-30.0 30.0)
           (-30.0 30.0)
  end
  begin
     id 12 
     name upperback
     direction -0.0105003 0.999727 -0.0208904   
     length 2.04538   
     axis 0 0 0   XYZ
    dof rx ry rz
    limits (-20.0 45.0)
           (-30.0 30.0)
           (-30.0 30.0)
  end
  begin
     id 13 
     name thorax
     direction -0.000416255 0.999808 -0.0196023   
     length 2.0399   
     axis 0 0 0   XYZ
    dof rx ry rz
    limits (-20.0 45.0)
           (-30.0 30.0)
           (-30.0 30.0)
  end
  begin
     id 14 
     name lowerneck
     direction 0.0627861 0.989205 0.13241   
     length 1.46207   
     axis 0 0 0   XYZ
    dof rx ry rz
    limits (-20.0 45.0)
           (-30.0 30.0)
           (-30.0 30.0)
  end
  begin
     id 15 
     name upperneck
     direction 0.00627179 0.994526 0.104303   
     length 1.41419   
     axis 0 0 0   XYZ
    dof rx ry rz
    limits (-20.0 45.0)
           (-30.0 30.0)
           (-30.0 30.0)
  end
  begin
     id 16
     name head
     direction -0.00443838 0.999688 0.0245968  
     length 1.50718  
     axis 0 0 0   XYZ
    dof rx ry rz
    limits (-20.0 45.0)
           (-30.0 30.0)
           (-30.0 30.0)
  end
  begin
     id 17 
     name lclavicle
     direction 0.758742 0.650995 -0.0227258  
     length 2.86888  
     axis 0 0 0   XYZ
    dof ry rz
    limits (-20.0 10.0)
           (0.0 20.0)
  end
  begin
     id 18 
     name lhumerus
     direction 1 -4.48962e-011 1.06664e-027   
     length 4.65776   
     axis -180 -30 -90   XYZ
    dof rx ry rz
    limits (-60.0 90.0)
           (-90.0 90.0)
           (-90.0 90.0)
  end
  begin
     id 19
     name lradius
     direction 1 -4.48968e-011 1.40404e-026   
     length 3.55539   
     axis -180 -30 -90   XYZ
    dof rx
    limits (-10.0 170.0)
  end
  begin
     id 20
     name lwrist
     direction 1 -4.48976e-011 3.32647e-026   
     length 1.77769   
     axis -2.20186e-014 90 90   XYZ
    dof ry
    limits (-180.0 0.0)
 end
  begin
     id 21 
     name lhand
     direction 1 -4.48982e-011 6.65293e-026   
     length 0.707264   
     axis -4.24514e-014 90 90   XYZ
    dof rx rz
    limits (-90.0 90.0)
           (-45.0 45.0)
  end
  begin
     id 22 
     name lfingers
     direction 1 -4.48966e-011 1.33059e-025   
     length 0.570215   
     axis -8.49028e-014 90 90   XYZ
    dof rx
    limits (0.0 90.0)
  end
  begin
     id 23
     name lthumb
     direction 0.707107 -6.3493e-011 0.707107   
     length 0.818718   
     axis -90 45 2.85299e-015   XYZ
    dof rx rz
    limits (-45.0 45.0)
           (-45.0 45.0)
  end
  begin
     id 24 
     name rclavicle
     direction -0.870343 0.482028 -0.100759   
     length 3.2251  
     axis 0 0 0   XYZ 
    dof ry rz
    limits (-10.0 20.0)
           (-20.0 0.0)
  end
  begin
     id 25 
     name rhumerus
     direction -1 -4.48974e-011 -9.45849e-028  
     length 4.71925   
     axis -180 30 90   XYZ
    dof rx ry rz
    limits (-90.0 60.0)
           (-90.0 90.0)
           (-90.0 90.0)
  end
  begin
     id 26 
     name rradius
     direction -1 -4.48965e-011 1.17607e-026   
     length 3.5699   
     axis -180 30 90   XYZ
    dof rx
    limits (-10.0 170.0)
  end
  begin
     id 27 
     name rwrist
     direction -1 -4.48968e-011 3.32647e-026   
     length 1.78495   
     axis -2.20186e-014 -90 -90   XYZ
    dof ry
    limits (-180.0 0.0)
  end
  begin
     id 28
     name rhand
     direction -1 -4.48995e-011 6.65293e-026   
     length 0.507757   
     axis -4.24514e-014 -90 -90   XYZ
    dof rx rz
    limits (-90.0 90.0)
           (-45.0 45.0)
  end
  begin
     id 29
     name rfingers
     direction -1 -4.48864e-011 1.33059e-025   
     length 0.409367   
     axis -8.49028e-014 -90 -90   XYZ
    dof rx
    limits (0.0 90.0)
  end
  begin
     id 30
     name rthumb
     direction -0.707107 -6.3494e-011 0.707107   
     length 0.587771   
     axis -90 -45 -2.85299e-015   XYZ
    dof rx rz
    limits (-45.0 45.0)
           (-45.0 45.0)
  end
:hierarchy
  begin
    root lhipjoint rhipjoint lowerback
    lhipjoint lfemur
    lfemur ltibia
    ltibia lfoot
    lfoot ltoes
    rhipjoint rfemur
    rfemur rtibia
    rtibia rfoot
    rfoot rtoes
    lowerback upperback
    upperback thorax
    thorax lowerneck lclavicle rclavicle
    lowerneck upperneck
    upperneck head
    lclavicle lhumerus
    lhumerus lradius
    lradius lwrist
    lwrist lhand lthumb
    lhand lfingers
    rclavicle rhumerus
    rhumerus rradius
    rradius rwrist
    rwrist rhand rthumb
    rhand rfingers
  end

#!OML:ASF E:\Steps\Project 1\Capture day 1\Session 2\Subject.ASF
:FULLY-SPECIFIED
:DEGREES
59
root 8.24618 16.3001 31.1269 -151.452 -1.51882 178.124
lowerback -29.37 -1.46151 -6.68057
upperback -1.62114 -0.381 -0.265654
thorax 13.682 -0.864115 3.12513
lowerneck -6.99749 -3.58152 0.647741
upperneck 8.90424 -5.38699 3.36415
head 4.27242 -2.53794 0.690041
rclavicle 1.3418e-015 1.33186e-014
rhumerus -37.6361 -18.811 -78.3796
rradius 33.4598
rwrist -1.01684
rhand -7.16006 -53.4192
rfingers 7.12502
rthumb 18.7169 -82.5387
lclavicle 1.3418e-015 1.33186e-014
lhumerus -26.8903 6.57375 81.6853
lradius 22.6938
lwrist -2.90611
lhand -21.3987 -12.4727
lfingers 7.12502
lthumb 4.98934 17.4486
rfemur -23.8244 7.62573 18.3447
rtibia 4.59847
rfoot -18.8319 -11.7415
rtoes -31.1129
lfemur -26.0467 -9.82864 -17.686
ltibia 8.48008
lfoot -8.82967 5.81084
ltoes -43.014
60
root 8.24914 16.302 31.1265 -151.433 -1.53857 178.078
lowerback -29.31 -1.46619 -6.65962
upperback -1.65681 -0.398601 -0.313684
thorax 13.6146 -0.868852 3.05534
lowerneck -6.90076 -3.60302 0.579141
upperneck 8.74694 -5.41335 3.50421
head 4.20447 -2.55018 0.750338
rclavicle -1.5207e-014 8.74653e-015
rhumerus -37.6541 -18.9899 -78.3862
rradius 33.4041
rwrist -0.855361
rhand -7.11234 -53.5048
rfingers 7.12502
rthumb 18.7628 -82.6199
lclavicle -1.5207e-014 8.74653e-015
lhumerus -26.8831 6.15014 81.7052
lradius 22.8237
lwrist -2.53675
lhand -21.3842 -12.0841
lfingers 7.12502
lthumb 5.00334 17.8368
rfemur -23.856 7.63882 18.3021
rtibia 4.64973
rfoot -18.8389 -11.8082
rtoes -31.2194
lfemur -26.0846 -9.78092 -17.7444
ltibia 8.52242
lfoot -8.84761 5.79511
ltoes -43.5353
61
root 8.25069 16.3023 31.1266 -151.398 -1.58721 178.096
lowerback -29.3518 -1.43421 -6.51843
upperback -1.6484 -0.3904 -0.392685
thorax 13.6424 -0.856353 2.8957
lowerneck -6.876 -3.64787 0.686342
upperneck 8.86656 -5.49983 3.51623
head 4.24093 -2.59018 0.729831
rclavicle 9.24349e-015 -9.54166e-015
rhumerus -37.6402 -19.2483 -78.4434
rradius 33.3537
rwrist -0.701122
rhand -7.05748 -53.4903
rfingers 7.12502
rthumb 18.8155 -82.6003
lclavicle 9.24349e-015 -9.54166e-015
lhumerus -26.7933 5.85117 81.6481
lradius 22.8945
lwrist -2.25617
lhand -21.3703 -12.4674
lfingers 7.12502
lthumb 5.01683 17.4532
rfemur -23.9158 7.68452 18.3312
rtibia 4.72281
rfoot -18.9665 -11.8791
rtoes -30.9482
lfemur -26.1746 -9.75149 -17.6991
ltibia 8.58103
lfoot -8.89631 5.75018
ltoes -43.5867
62
root 8.25074 16.3015 31.1284 -151.373 -1.6506 178.155
lowerback -29.3606 -1.40441 -6.3573
upperback -1.64085 -0.396196 -0.441167
thorax 13.6565 -0.848321 2.75379
lowerneck -6.84093 -3.5991 0.693938
upperneck 8.90799 -5.45644 3.6427
head 4.25284 -2.56503 0.773718
rclavicle -1.27222e-014 -7.15625e-015
rhumerus -37.6349 -19.2882 -78.5485
rradius 33.3899
rwrist -0.738855
rhand -7.03383 -53.5338
rfingers 7.12502
rthumb 18.8383 -82.6416
lclavicle -1.27222e-014 -7.15625e-015
lhumerus -26.7416 5.75427 81.5892
lradius 22.9692
lwrist -2.20536
lhand -21.3876 -12.5725
lfingers 7.12502
lthumb 5.00007 17.3485
rfemur -23.9517 7.39999 18.5052
rtibia 4.74121
rfoot -19.0108 -11.6572
rtoes -30.94
lfemur -26.2765 -9.65587 -17.6418
ltibia 8.69416
lfoot -8.92119 5.61472
ltoes -43.3597
63
root 8.25063 16.304 31.1295 -151.417 -1.73655 178.141
lowerback -29.2705 -1.44843 -6.30553
upperback -1.64227 -0.476178 -0.420609
thorax 13.6223 -0.878932 2.71913
lowerneck -6.48398 -3.37149 0.196471
upperneck 8.73817 -5.15564 4.23246
head 4.15373 -2.41819 1.08422
rclavicle -2.43511e-015 1.19271e-015
rhumerus -37.6324 -18.986 -78.6546
rradius 33.482
rwrist -0.958261
rhand -7.0778 -53.561
rfingers 7.12502
rthumb 18.796 -82.6729
lclavicle -2.43511e-015 1.19271e-015
lhumerus -26.8258 5.7154 81.6335
lradius 23.1436
lwrist -2.14246
lhand -21.3644 -12.1991
lfingers 7.12502
lthumb 5.02246 17.7214
rfemur -23.875 7.21214 18.5691
rtibia 4.70734
rfoot -18.9997 -11.5699
rtoes -31.2588
lfemur -26.2492 -9.67649 -17.663
ltibia 8.71987
lfoot -8.92443 5.55224
ltoes -43.1092
64
root 8.25227 16.307 31.1296 -151.446 -1.76646 178.051
lowerback -29.1807 -1.5286 -6.36056
upperback -1.67474 -0.577286 -0.388724
thorax 13.5535 -0.926741 2.74596
lowerneck -6.51378 -3.48188 0.351181
upperneck 8.86974 -5.2849 3.86321
head 4.19034 -2.4893 0.924401
rclavicle 4.32357e-015 -4.8901e-014
rhumerus -37.6674 -18.7507 -78.6803
rradius 33.4992
rwrist -0.998104
rhand -7.11081 -53.3976
rfingers 7.12502
rthumb 18.7642 -82.5125
lclavicle 4.32357e-015 -4.8901e-014
lhumerus -26.9431 5.77156 81.6815
lradius 23.2414
lwrist -2.14458
lhand -21.4351 -11.9096
lfingers 7.12502
lthumb 4.95424 18.0124
rfemur -23.7302 7.5164 18.3823
rtibia 4.48991
rfoot -18.9581 -11.8919
rtoes -31.1654
lfemur -26.1991 -9.77692 -17.7344
ltibia 8.67158
lfoot -8.95513 5.47436
ltoes -42.356
65
root 8.25461 16.3101 31.1303 -151.392 -1.76441 178.075
lowerback -29.1968 -1.53007 -6.30922
upperback -1.69446 -0.601257 -0.3728
thorax 13.5408 -0.935546 2.72579
lowerneck -6.57773 -3.48347 0.407637
upperneck 8.96824 -5.27172 3.64106
head 4.22784 -2.48718 0.839191
rclavicle 1.63997e-015 -1.66979e-014
rhumerus -37.6866 -18.7604 -78.6521
rradius 33.4884
rwrist -0.958056
rhand -7.03342 -52.9054
rfingers 7.12502
rthumb 18.8387 -82.0131
lclavicle 1.63997e-015 -1.66979e-014
lhumerus -26.9254 5.86833 81.6959
lradius 23.232
lwrist -2.2428
lhand -21.6954 -11.8373
lfingers 7.12502
lthumb 4.70285 18.0905
rfemur -23.9193 7.35094 18.4374
rtibia 4.74537
rfoot -19.0836 -11.6491
rtoes -30.7617
lfemur -26.3043 -9.73254 -17.6785
ltibia 8.73263
lfoot -9.0056 5.37516
ltoes -41.8087
66
root 8.25717 16.313 31.129 -151.358 -1.7674 178.119
lowerback -29.2233 -1.51746 -6.24974
upperback -1.7034 -0.607496 -0.348681
thorax 13.5439 -0.93595 2.71689
lowerneck -6.62398 -3.45581 0.359257
upperneck 9.0151 -5.22359 3.58003
head 4.25234 -2.46566 0.8291
rclavicle 1.01877e-014 -1.74931e-014
rhumerus -37.6528 -18.8352 -78.5949
rradius 33.403
rwrist -0.897458
rhand -7.04068 -52.6113
rfingers 7.12502
rthumb 18.8317 -81.7197
lclavicle 1.01877e-014 -1.74931e-014
lhumerus -26.9848 5.81571 81.7564
lradius 23.3528
lwrist -2.15973
lhand -21.8401 -11.9582
lfingers 7.12502
lthumb 4.56321 17.9726
rfemur -23.9617 7.36084 18.4913
rtibia 4.75661
rfoot -19.0087 -11.5914
rtoes -30.6017
lfemur -26.3543 -9.81915 -17.5796
ltibia 8.75391
lfoot -9.00584 5.50466
ltoes -42.2203
67
root 8.26113 16.3132 31.1283 -151.352 -1.7545 178.073
lowerback -29.2075 -1.52646 -6.31417
upperback -1.71611 -0.601392 -0.351616
thorax 13.521 -0.936911 2.75099
lowerneck -6.59035 -3.50355 0.337914
upperneck 9.00695 -5.29116 3.62431
head 4.24639 -2.49887 0.844314
rclavicle -7.45443e-016 3.18055e-015
rhumerus -37.6386 -18.9386 -78.5469
rradius 33.3195
rwrist -0.803564
rhand -7.16672 -52.9134
rfingers 7.12502
rthumb 18.7105 -82.0336
lclavicle -7.45443e-016 3.18055e-015
lhumerus -27.125 5.61738 81.7949
lradius 23.6019
lwrist -2.09499
lhand -21.5648 -12.1679
lfingers 7.12502
lthumb 4.82903 17.7571
rfemur -23.9613 7.31758 18.4733
rtibia 4.73363
rfoot -18.8536 -11.6511
rtoes -31.3056
lfemur -26.3464 -9.96337 -17.5899
ltibia 8.74544
lfoot -8.98926 5.6246
ltoes -42.7184
68
root 8.26825 16.3124 31.1278 -151.369 -1.69132 178.043
lowerback -29.2102 -1.53199 -6.39625
upperback -1.67984 -0.574757 -0.351029
thorax 13.5612 -0.929416 2.80645
lowerneck -6.51566 -3.48727 0.283966
upperneck 8.94654 -5.26596 3.6844
head 4.21326 -2.48738 0.877146
rclavicle 7.30534e-015 -2.14687e-014
rhumerus -37.6011 -18.9415 -78.5584
rradius 33.3358
rwrist -0.786962
rhand -7.20954 -53.0763
rfingers 7.12502
rthumb 18.6693 -82.2004
lclavicle 7.30534e-015 -2.14687e-014
lhumerus -27.1185 5.64302 81.7661
lradius 23.7227
lwrist -2.28268
lhand -21.2094 -12.3092
lfingers 7.12502
lthumb 5.17216 17.6077
rfemur -23.9555 7.18222 18.4847
rtibia 4.69477
rfoot -18.7005 -11.5337
rtoes -31.8643
lfemur -26.342 -9.92125 -17.6034
ltibia 8.75907
lfoot -8.99311 5.69098
ltoes -43.2313
69
root 8.2773 16.3104 31.1231 -151.424 -1.5871 178.064
lowerback -29.2421 -1.56044 -6.44234
upperback -1.61559 -0.588156 -0.306762
thorax 13.6519 -0.939087 2.87427
lowerneck -6.48443 -3.43457 0.231354
upperneck 8.9378 -5.17472 3.5881
head 4.20005 -2.44755 0.860219
rclavicle 8.44835e-015 1.39149e-014
rhumerus -37.4937 -18.7969 -78.6123
rradius 33.3132
rwrist -0.820016
rhand -7.19995 -52.815
rfingers 7.12502
rthumb 18.6785 -81.9382
lclavicle 8.44835e-015 1.39149e-014
lhumerus -26.9734 5.88885 81.7289
lradius 23.5823
lwrist -2.49017
lhand -21.0638 -12.2129
lfingers 7.12502
lthumb 5.31272 17.7005
rfemur -23.9272 6.88667 18.5794
rtibia 4.71161
rfoot -18.7781 -11.0605
rtoes -31.4319
lfemur -26.2201 -10.1798 -17.4562
ltibia 8.62563
lfoot -9.00208 6.15465
ltoes -43.562
70
root 8.28294 16.3088 31.1193 -151.465 -1.50254 178.086
lowerback -29.2582 -1.56802 -6.46862
upperback -1.57637 -0.584368 -0.279366
thorax 13.7048 -0.939463 2.9198
lowerneck -6.59582 -3.55818 0.416106
upperneck 9.13477 -5.3394 3.28299
head 4.27872 -2.53241 0.712464
rclavicle -4.07509e-015 1.39149e-014
rhumerus -37.4267 -18.8045 -78.6009
rradius 33.2657
rwrist -0.770549
rhand -7.18872 -52.6282
rfingers 7.12502
rthumb 18.6893 -81.7504
lclavicle -4.07509e-015 1.39149e-014
lhumerus -26.8598 6.02048 81.7167
lradius 23.4325
lwrist -2.67297
lhand -20.8812 -11.9302
lfingers 7.12502
lthumb 5.48908 17.9788
rfemur -23.9033 6.412 18.7246
rtibia 4.74245
rfoot -18.8879 -10.4674
rtoes -31.1641
lfemur -26.1028 -10.4653 -17.3292
ltibia 8.52001
lfoot -9.02217 6.50723
ltoes -43.03
71
root 8.2867 16.3098 31.1192 -151.463 -1.463 178.09
lowerback -29.2651 -1.5482 -6.47609
upperback -1.56279 -0.551042 -0.297061
thorax 13.72 -0.924627 2.91747
lowerneck -6.56048 -3.60381 0.34487
upperneck 9.11784 -5.41286 3.44246
head 4.27542 -2.56578 0.77479
rclavicle 7.45443e-016 4.37326e-015
rhumerus -37.4125 -18.9086 -78.5839
rradius 33.2407
rwrist -0.714509
rhand -7.16376 -52.512
rfingers 7.12502
rthumb 18.7133 -81.6319
lclavicle 7.45443e-016 4.37326e-015
lhumerus -26.831 6.10457 81.6617
lradius 23.3798
lwrist -2.89869
lhand -20.771 -11.7975
lfingers 7.12502
lthumb 5.59548 18.1087
rfemur -23.9191 6.26207 18.7822
rtibia 4.76346
rfoot -18.8539 -10.3002
rtoes -31.2643
lfemur -26.095 -10.3685 -17.3443
ltibia 8.52487
lfoot -8.99399 6.44746
ltoes -42.8844
72
root 8.29019 16.311 31.1185 -151.454 -1.46079 178.066
lowerback -29.2457 -1.5583 -6.50053
upperback -1.57916 -0.560781 -0.294895
thorax 13.6931 -0.930327 2.92944
lowerneck -6.37163 -3.49423 -0.00936212
upperneck 8.84685 -5.26572 3.92988
head 4.16804 -2.48991 1.01431
rclavicle -1.39149e-015 2.70347e-014
rhumerus -37.3973 -18.8877 -78.5536
rradius 33.1507
rwrist -0.761037
rhand -7.27228 -52.5812
rfingers 7.12502
rthumb 18.6089 -81.7111
lclavicle -1.39149e-015 2.70347e-014
lhumerus -26.8651 6.27087 81.6014
lradius 23.3572
lwrist -3.11078
lhand -20.686 -11.7887
lfingers 7.12502
lthumb 5.6775 18.1153
rfemur -23.9763 6.66205 18.6721
rtibia 4.89178
rfoot -18.9012 -10.6688
rtoes -30.968
lfemur -26.0825 -10.4348 -17.3451
ltibia 8.47751
lfoot -8.91689 6.57012
ltoes -43.4526
73
root 8.29331 16.3069 31.1175 -151.574 -1.576 178.256
lowerback -29.0922 -1.53773 -6.30747
upperback -1.58309 -0.612345 -0.198393
thorax 13.6273 -0.938431 2.91367
lowerneck -6.34117 -3.44522 -0.0638503
upperneck 8.84451 -5.19954 3.97553
head 4.16315 -2.45789 1.04365
rclavicle -9.14409e-015 1.25234e-014
rhumerus -37.3932 -18.8716 -78.4649
rradius 33.0683
rwrist -0.744324
rhand -7.43881 -52.9297
rfingers 7.12502
rthumb 18.4487 -82.0749
lclavicle -9.14409e-015 1.25234e-014
lhumerus -26.9258 6.23723 81.6887
lradius 23.3928
lwrist -2.91333
lhand -20.6352 -11.9225
lfingers 7.12502
lthumb 5.72655 17.9801
rfemur -23.8543 6.88976 18.9051
rtibia 4.9633
rfoot -19.0498 -10.8249
rtoes -30.6991
lfemur -25.9274 -10.5851 -17.0574
ltibia 8.41739
lfoot -8.92827 6.71921
ltoes -43.4021
